<svg width="729" height="654" viewBox="0 0 729 654" fill="none" xmlns="http://www.w3.org/2000/svg">
<path d="M367.392 315.988V514.378L195.694 447.847L196.513 250.174L367.392 315.988Z" fill="#3448F0" fill-opacity="0.56"/>
<path d="M367.395 316.106V514.497L538.258 450.263V250.807L367.395 316.106Z" fill="#3448F0" fill-opacity="0.35"/>
<path d="M367.392 315.988L539.091 251.471L368.741 183.728L195.694 249.858L367.392 315.988Z" fill="#3448F0" fill-opacity="0.35"/>
<path d="M148.806 285.249L321.598 360.491C322.062 360.693 322.588 360.753 323.094 360.661C323.6 360.569 324.058 360.331 324.398 359.983L367.392 315.987L195.694 249.858L148.421 281.656C148.098 281.873 147.843 282.162 147.68 282.493C147.516 282.825 147.451 283.188 147.489 283.549C147.528 283.91 147.669 284.256 147.9 284.553C148.131 284.851 148.443 285.09 148.806 285.249Z" fill="#3448F0" fill-opacity="0.56"/>
<path d="M539.09 251.471L586.775 290.147C587.066 290.383 587.287 290.681 587.418 291.012C587.548 291.344 587.584 291.7 587.523 292.047C587.461 292.395 587.304 292.723 587.065 293.002C586.827 293.282 586.514 293.503 586.156 293.646L415.494 361.976C415.039 362.159 414.53 362.207 414.042 362.113C413.554 362.02 413.112 361.79 412.779 361.456L367.391 315.988L539.09 251.471Z" fill="#3448F0" fill-opacity="0.56"/>
<path d="M368.74 183.728L539.568 251.471L564.135 246.362C564.618 246.262 565.053 246.027 565.379 245.692C565.705 245.356 565.904 244.937 565.949 244.494C565.994 244.051 565.882 243.607 565.629 243.224C565.376 242.842 564.995 242.541 564.54 242.364L408.553 181.728C408.212 181.596 407.841 181.537 407.47 181.558L368.74 183.728Z" fill="#3448F0" fill-opacity="0.56"/>
<path d="M368.74 183.728L198.87 250.173L177.397 246.936C176.899 246.853 176.445 246.628 176.101 246.296C175.757 245.963 175.542 245.54 175.487 245.089C175.431 244.638 175.539 244.183 175.795 243.791C176.05 243.4 176.439 243.092 176.904 242.914L336.746 181.115C337.099 180.98 337.484 180.925 337.866 180.954L368.74 183.728Z" fill="#3448F0" fill-opacity="0.56"/>
</svg>
