<svg width="219" height="187" viewBox="0 0 219 187" fill="none" xmlns="http://www.w3.org/2000/svg">
<path d="M148.119 7.82286C148.119 7.82286 118.169 45.7585 70.2506 23.1302C22.3318 0.501841 -25.5871 61.7316 15.6764 99.0017C56.9398 136.272 16.5605 156.752 44.5932 179.593C76.4543 205.554 104.193 152.91 129.484 164.89C185.301 191.33 226.652 180.863 217.335 150.248C200.979 96.508 180.065 93.0119 196.037 65.0592C212.01 37.1065 176.758 -21.0139 148.119 7.82286Z" fill="#DEE9FF"/>
<path d="M131.813 112.743L129.447 125.446L118.177 185.831L97.8767 182.04L110.893 112.285L111.512 108.961L131.813 112.743Z" fill="#699CFF"/>
<path d="M181.809 82.3647L174.809 119.893C174.789 120.003 174.747 120.108 174.686 120.202C174.625 120.296 174.546 120.376 174.453 120.44C174.361 120.503 174.257 120.547 174.148 120.57C174.038 120.593 173.925 120.595 173.815 120.574L75.4705 102.232L87.0457 40.1699L161.725 54.0985C175.26 56.6225 184.251 69.2751 181.809 82.3647Z" fill="#A2BDFF"/>
<path d="M108.051 69.7705L101.106 107.008L49.4841 97.3797L56.4293 60.1426C58.9863 46.4324 72.6156 37.4731 86.8703 40.1317C101.125 42.7903 110.608 56.06 108.051 69.7705Z" fill="#699CFF"/>
<path d="M132.083 87.1776C128.279 86.468 125.769 82.7709 126.485 78.9316C127.202 75.0922 130.875 72.5476 134.679 73.2575C135.892 73.4853 137.023 74.0302 137.956 74.8368C138.89 75.6433 139.593 76.6828 139.995 77.8495L188.047 86.8117L186.749 93.772L138.697 84.8097C137.902 85.7534 136.871 86.4696 135.709 86.8855C134.548 87.3014 133.296 87.4022 132.083 87.1776Z" fill="#418DF9"/>
<path d="M106.338 70.4549L99.5716 106.735L50.9421 97.6651L57.7093 61.3848C60.2006 48.0271 73.1068 39.2284 86.5353 41.733C99.9638 44.2376 108.83 57.097 106.338 70.4549Z" fill="#418DF9"/>
<path d="M133.446 83.6614C135.401 83.6614 136.986 82.0764 136.986 80.1212C136.986 78.166 135.401 76.5811 133.446 76.5811C131.491 76.5811 129.906 78.166 129.906 80.1212C129.906 82.0764 131.491 83.6614 133.446 83.6614Z" fill="white"/>
<path d="M188.603 86.7873L184.358 109.545C184.34 109.643 184.283 109.73 184.201 109.787C184.119 109.843 184.018 109.864 183.92 109.846L172.762 107.765C172.742 107.761 172.725 107.75 172.714 107.734C172.703 107.718 172.699 107.698 172.702 107.678L177.002 84.6237C177.006 84.6043 177.017 84.5872 177.033 84.5761C177.05 84.565 177.07 84.5607 177.089 84.5643L188.544 86.7008C188.563 86.7044 188.58 86.7155 188.591 86.7317C188.602 86.748 188.606 86.768 188.603 86.7873Z" fill="#699CFF"/>
<path d="M67.0348 84.6462C67.5047 88.1026 71.2975 92.2109 71.2975 92.2109C65.5181 92.6206 62.3881 89.3521 61.0413 87.3661C59.3762 87.8472 57.6648 88.151 55.9358 88.2722C44.0706 89.1131 33.8565 81.3668 33.1189 70.9614C32.3812 60.5561 41.4007 51.4463 53.2658 50.6054C65.131 49.7646 75.3444 57.5105 76.0819 67.916C76.5617 74.6843 72.9095 80.9055 67.0348 84.6462Z" fill="white"/>
<path d="M101.156 107.031C100.618 108.391 90.7925 148.906 58.996 142.976C24.1291 137.073 49.3491 97.3682 49.3491 97.3682L101.156 107.031Z" fill="#A2BDFF"/>
<path d="M54.6 73.0081C56.2293 73.0081 57.5501 71.6873 57.5501 70.058C57.5501 68.4287 56.2293 67.1079 54.6 67.1079C52.9707 67.1079 51.6499 68.4287 51.6499 70.058C51.6499 71.6873 52.9707 73.0081 54.6 73.0081Z" fill="#699CFF"/>
<path d="M41.3932 71.7219C43.0323 71.7219 44.361 70.3931 44.361 68.754C44.361 67.1149 43.0323 65.7861 41.3932 65.7861C39.7541 65.7861 38.4253 67.1149 38.4253 68.754C38.4253 70.3931 39.7541 71.7219 41.3932 71.7219Z" fill="#699CFF"/>
<path d="M67.6808 74.2653C69.3199 74.2653 70.6486 72.9366 70.6486 71.2974C70.6486 69.6583 69.3199 68.3296 67.6808 68.3296C66.0417 68.3296 64.7129 69.6583 64.7129 71.2974C64.7129 72.9366 66.0417 74.2653 67.6808 74.2653Z" fill="#699CFF"/>
<path d="M131.813 112.743L129.447 125.446L110.894 112.285L111.512 108.961L131.813 112.743Z" fill="#418DF9"/>
</svg>
