<svg width="249" height="220" viewBox="0 0 249 220" fill="none" xmlns="http://www.w3.org/2000/svg">
<path d="M130.618 13.9259C130.618 13.9259 112.78 60.858 58.2415 53.3878C3.70326 45.9177 -24.6722 121.536 27.8409 145.59C80.3541 169.643 46.7353 202.533 81.6371 216.419C121.305 232.2 132.364 171.386 161.16 175.365C224.714 184.146 262.42 160.874 243.636 133.447C210.663 85.3036 188.85 88.365 195.955 55.6855C203.06 23.006 149.997 -23.5815 130.618 13.9259Z" fill="#DEE9FF"/>
<path d="M113.365 60.5558C112.928 60.5281 112.518 60.3319 112.223 60.0087C111.928 59.6854 111.769 59.2602 111.781 58.8225L111.903 42.3294C111.9 42.1 111.944 41.8725 112.031 41.6602C112.118 41.448 112.247 41.2555 112.41 41.0942C112.573 40.9329 112.767 40.806 112.98 40.7212C113.193 40.6364 113.421 40.5954 113.65 40.6005L114.969 40.6595C115.197 40.6745 115.42 40.7357 115.625 40.8392C115.829 40.9427 116.01 41.0865 116.157 41.2619C116.305 41.4373 116.415 41.6406 116.482 41.8597C116.548 42.0789 116.57 42.3092 116.545 42.5369L115.105 58.971C115.075 59.4086 114.877 59.8176 114.553 60.1128C114.229 60.4081 113.803 60.5668 113.365 60.5558Z" fill="#418DF9"/>
<path d="M105.654 62.3427C105.385 62.4359 105.089 62.4183 104.833 62.2937C104.577 62.1692 104.381 61.948 104.287 61.6787L100.586 51.5976C100.479 51.311 100.49 50.9935 100.616 50.7148C100.743 50.4361 100.975 50.219 101.261 50.1111L102.082 49.8203C102.223 49.7719 102.372 49.7531 102.521 49.7653C102.669 49.7776 102.814 49.8204 102.945 49.8912C103.076 49.9621 103.191 50.0593 103.283 50.1768C103.374 50.2943 103.44 50.4295 103.477 50.5739L106.357 60.9457C106.437 61.2243 106.409 61.5228 106.279 61.7816C106.148 62.0405 105.925 62.2408 105.654 62.3427Z" fill="#418DF9"/>
<path d="M101.594 68.4496C101.052 69.1909 99.8921 69.2373 98.9658 68.5547L82.5164 56.4354C81.5338 55.7115 81.1945 54.4528 81.7699 53.6665L82.5719 52.5706C83.1475 51.7842 84.4059 51.7866 85.3409 52.5763L100.988 65.7915C101.869 66.5358 102.136 67.7083 101.594 68.4496Z" fill="#418DF9"/>
<path d="M217.134 94.6354L115.647 70.4765C111.886 69.5812 108.111 71.9043 107.216 75.6652L92.2917 138.359C91.3965 142.12 93.7195 145.895 97.4804 146.79L198.967 170.949C202.728 171.844 206.503 169.521 207.398 165.76L222.322 103.066C223.218 99.3052 220.895 95.5307 217.134 94.6354Z" fill="#A2BDFF"/>
<path d="M220.913 108.984L105.807 81.5835L102.684 94.7027L217.79 122.104L220.913 108.984Z" fill="#418DF9"/>
<path d="M202.463 157.988L179.575 152.539C179.502 152.522 179.429 152.567 179.412 152.64L177.962 158.731C177.944 158.804 177.989 158.877 178.062 158.894L200.95 164.343C201.023 164.36 201.096 164.315 201.113 164.242L202.563 158.151C202.581 158.078 202.536 158.005 202.463 157.988Z" fill="white"/>
<path d="M158.335 61.7289L40.1332 102.448C36.478 103.707 34.5356 107.691 35.7948 111.346L61.2539 185.251C62.5131 188.906 66.4969 190.848 70.1521 189.589L188.354 148.871C192.009 147.611 193.952 143.628 192.693 139.972L167.234 66.0673C165.974 62.4122 161.991 60.4698 158.335 61.7289Z" fill="#699CFF"/>
<path d="M155.879 71.2833L142.092 76.0329C139.899 76.7884 138.733 79.1788 139.489 81.3719L144.238 95.1597C144.994 97.3528 147.384 98.5182 149.577 97.7628L163.365 93.0131C165.558 92.2576 166.724 89.8673 165.968 87.6741L161.218 73.8863C160.463 71.6932 158.073 70.5278 155.879 71.2833Z" fill="white"/>
<path d="M107.587 137.36L61.7253 153.159C61.5939 153.204 61.5241 153.347 61.5694 153.479L63.9054 160.26C63.9507 160.391 64.0938 160.461 64.2252 160.416L110.087 144.617C110.219 144.572 110.288 144.429 110.243 144.297L107.907 137.516C107.862 137.385 107.719 137.315 107.587 137.36Z" fill="white"/>
<path d="M132.004 144.624L66.5516 167.171C66.4202 167.216 66.3504 167.359 66.3957 167.491L68.7317 174.272C68.7769 174.403 68.9201 174.473 69.0515 174.428L134.504 151.881C134.636 151.835 134.706 151.692 134.66 151.561L132.324 144.78C132.279 144.648 132.136 144.578 132.004 144.624Z" fill="white"/>
</svg>
