<svg width="280" height="280" viewBox="0 0 280 280" fill="none" xmlns="http://www.w3.org/2000/svg">
<path d="M226.018 106.097C226.018 106.097 197.09 130.481 227.891 184.955C255.245 233.333 189.877 252.421 162.148 246.207C126.227 238.157 106.885 191.333 78.8017 205.336C50.7188 219.339 25.3611 152.166 66.3049 128.674C117.238 99.4508 85.6809 80.9774 90.8507 58.7663C94.5607 42.8253 141.186 19.1755 165.062 48.0315C185.154 72.3132 195.619 64.0566 205.228 61.1146C219.088 56.8712 248.313 81.4117 226.018 106.097Z" fill="#DEE9FF" fill-opacity="0.4"/>
<path d="M196.757 70.3358L134.336 60.1074C129.758 59.3572 125.439 62.4603 124.688 67.0385L103.098 198.796C102.348 203.374 105.451 207.694 110.029 208.444L172.45 218.672C177.028 219.422 181.347 216.319 182.097 211.741L203.688 79.9836C204.438 75.4054 201.335 71.086 196.757 70.3358Z" fill="#3448F0" fill-opacity="0.35"/>
<path d="M194.704 74.0491L135.096 64.2815C132.044 63.7814 129.164 65.8502 128.664 68.9023L107.461 198.298C106.961 201.351 109.029 204.23 112.082 204.73L171.689 214.498C174.741 214.998 177.621 212.929 178.121 209.877L199.324 80.4809C199.824 77.4288 197.756 74.5492 194.704 74.0491Z" fill="#3448F0" fill-opacity="0.35"/>
<path d="M76.9556 170.342C76.7117 171.19 76.7245 172.09 76.9924 172.93C77.2603 173.77 77.7713 174.512 78.4608 175.062C79.1502 175.611 79.9872 175.944 80.8658 176.018C81.7444 176.092 82.6252 175.904 83.3969 175.477C84.1685 175.051 84.7963 174.405 85.2009 173.621C85.6055 172.838 85.7686 171.952 85.6698 171.076C85.571 170.2 85.2145 169.373 84.6456 168.699C84.0766 168.025 83.3207 167.536 82.4734 167.292C81.3372 166.965 80.1176 167.102 79.0828 167.674C78.0481 168.247 77.2829 169.206 76.9556 170.342Z" fill="#3448F0" fill-opacity="0.35"/>
<path d="M86.9298 161.043C86.9187 161.228 86.8863 161.41 86.8332 161.587C86.7383 161.917 86.5791 162.225 86.3648 162.493C86.1504 162.761 85.8851 162.985 85.5841 163.15C85.285 163.316 84.9556 163.422 84.6152 163.46C84.2749 163.497 83.9304 163.467 83.602 163.37C82.5247 163.06 81.3967 162.964 80.2826 163.09C79.1685 163.216 78.0901 163.56 77.1092 164.103C76.1282 164.646 75.264 165.377 74.5658 166.254C73.8677 167.131 73.3494 168.138 73.0407 169.216C72.9456 169.545 72.7866 169.852 72.5727 170.12C72.3589 170.388 72.0944 170.611 71.7943 170.776C71.1884 171.111 70.4744 171.191 69.8094 170.999C69.1445 170.807 68.583 170.358 68.2486 169.752C67.9142 169.146 67.8343 168.432 68.0263 167.767C68.5207 166.03 69.3554 164.408 70.482 162.996C71.6085 161.584 73.0044 160.41 74.5885 159.542C75.7759 158.883 77.053 158.401 78.3796 158.111L86.9298 161.043Z" fill="#3448F0" fill-opacity="0.35"/>
<path d="M67.1201 154.259L73.3411 156.392C73.2079 156.451 73.0782 156.517 72.9528 156.59C70.9806 157.672 69.2427 159.135 67.8399 160.894C66.4372 162.652 65.3974 164.672 64.7808 166.835C64.6879 167.166 64.5305 167.475 64.3176 167.745C64.1047 168.015 63.8406 168.24 63.5404 168.408C63.2402 168.575 62.9098 168.681 62.5684 168.72C62.227 168.76 61.8811 168.731 61.5508 168.636C61.2205 168.541 60.9123 168.381 60.6438 168.167C60.3753 167.952 60.1519 167.687 59.9865 167.386C59.821 167.084 59.7168 166.753 59.6797 166.412C59.6427 166.07 59.6736 165.724 59.7706 165.395C61.0144 161.014 63.5813 157.125 67.1201 154.259Z" fill="#3448F0" fill-opacity="0.35"/>
<path d="M89.2056 153.331C89.0129 153.995 88.5655 154.556 87.9609 154.891C87.3564 155.227 86.6438 155.309 85.9785 155.122C84.7718 154.771 83.5302 154.554 82.276 154.475L72.3378 151.077C77.0955 148.992 82.4351 148.646 87.4222 150.1C88.0865 150.293 88.6472 150.741 88.9815 151.347C89.3158 151.953 89.3964 152.666 89.2056 153.331Z" fill="#3448F0" fill-opacity="0.35"/>
<path d="M57.9717 151.134L63.4225 152.994C60.1397 156.13 57.7531 160.086 56.5091 164.452C56.4143 164.782 56.2551 165.09 56.0408 165.358C55.8264 165.626 55.5612 165.85 55.2602 166.015C54.9623 166.183 54.6338 166.289 54.2942 166.328C53.9545 166.367 53.6104 166.338 53.2821 166.243C52.9526 166.149 52.6448 165.991 52.3764 165.778C52.108 165.564 51.8843 165.3 51.718 165.001C51.5518 164.701 51.4463 164.372 51.4075 164.031C51.3688 163.691 51.3976 163.346 51.4922 163.016C52.7432 158.624 54.9566 154.565 57.9717 151.134Z" fill="#3448F0" fill-opacity="0.35"/>
<path d="M91.5894 145.06C91.3962 145.724 90.9477 146.285 90.342 146.619C89.7364 146.953 89.023 147.034 88.358 146.843C85.1112 145.899 81.7096 145.609 78.35 145.989C74.9903 146.369 71.7392 147.411 68.7849 149.055C68.4868 149.222 68.1969 149.385 67.9183 149.57L61.806 147.474C65.6792 144.358 70.2446 142.219 75.1174 141.237C79.9903 140.254 85.028 140.457 89.806 141.828C90.4704 142.021 91.0311 142.47 91.3653 143.076C91.6996 143.681 91.7802 144.395 91.5894 145.06Z" fill="#3448F0" fill-opacity="0.35"/>
<path d="M51.9811 151.492L51.981 151.492C51.5609 152.72 52.2154 154.055 53.443 154.476L87.151 166.012C88.3786 166.432 89.7142 165.777 90.1343 164.55L90.1344 164.55C90.5545 163.322 89.8999 161.986 88.6724 161.566L54.9644 150.03C53.7368 149.61 52.4012 150.265 51.9811 151.492Z" fill="#3448F0" fill-opacity="0.35"/>
<path d="M230.227 60.0536C225.693 58.1592 222.488 59.9765 221.73 61.7903C221.183 63.1005 222.038 64.1681 222.945 64.5471C224.759 65.3048 225.101 62.4096 228.527 63.8409C230.207 64.5425 231.241 65.8429 230.595 67.3881C229.837 69.2021 227.521 69.4576 226.02 69.935C224.695 70.3679 222.843 71.2119 221.636 74.1007C220.907 75.8473 221.166 76.5476 222.543 77.123C224.189 77.8105 224.833 77.2119 225.1 76.5736C225.83 74.8269 226.285 73.8331 228.735 73.1606C229.937 72.8341 233.746 71.7425 235.065 68.5851C236.385 65.4277 234.526 61.8498 230.227 60.0536Z" fill="#3448F0" fill-opacity="0.35"/>
<path d="M221.608 79.455C220.924 79.1783 220.158 79.1825 219.477 79.4667C218.796 79.7509 218.255 80.2922 217.97 80.9731C217.686 81.654 217.681 82.4197 217.958 83.1039C218.234 83.7882 218.769 84.3358 219.447 84.628C220.132 84.9099 220.901 84.9091 221.585 84.6258C222.27 84.3426 222.814 83.7999 223.1 83.1163C223.385 82.4328 223.389 81.664 223.109 80.9779C222.83 80.2919 222.29 79.7444 221.608 79.455Z" fill="#3448F0" fill-opacity="0.35"/>
<path d="M144.943 120.276C145.352 117.757 144.625 115.543 143.319 115.331C142.013 115.119 140.622 116.989 140.213 119.508C139.804 122.027 140.531 124.241 141.837 124.453C143.143 124.665 144.534 122.795 144.943 120.276Z" fill="white"/>
<path d="M172.179 124.747C172.592 122.203 171.869 119.969 170.562 119.757C169.256 119.545 167.862 121.435 167.449 123.979C167.036 126.523 167.76 128.757 169.066 128.969C170.372 129.181 171.766 127.291 172.179 124.747Z" fill="white"/>
<path d="M161.061 146.677C160.966 146.677 160.872 146.657 160.785 146.62C160.698 146.583 160.619 146.528 160.554 146.459L159.569 145.422C157.988 143.763 155.907 142.669 153.644 142.308C151.381 141.948 149.063 142.34 147.045 143.426L145.787 144.106C145.706 144.149 145.617 144.177 145.526 144.186C145.434 144.196 145.342 144.187 145.254 144.161C145.166 144.134 145.084 144.091 145.012 144.033C144.941 143.975 144.882 143.903 144.838 143.822C144.794 143.742 144.767 143.653 144.758 143.561C144.748 143.47 144.757 143.377 144.783 143.289C144.81 143.201 144.853 143.119 144.911 143.048C144.969 142.977 145.041 142.917 145.121 142.874L146.38 142.194C148.668 140.963 151.298 140.517 153.864 140.926C156.431 141.335 158.791 142.576 160.584 144.457L161.569 145.494C161.663 145.594 161.726 145.718 161.75 145.853C161.774 145.988 161.758 146.127 161.704 146.253C161.65 146.378 161.561 146.486 161.446 146.561C161.332 146.636 161.198 146.676 161.061 146.676V146.677Z" fill="white"/>
</svg>
