<svg width="199" height="203" viewBox="0 0 199 203" fill="none" xmlns="http://www.w3.org/2000/svg">
<path d="M2.7205 171.238C10.3365 189.823 22.7545 193.691 31.4853 189.823C48.3704 182.341 92.232 173.983 137.279 193.631C196.942 219.654 209.637 180.392 190.595 140.677C171.554 100.962 165.1 60.8003 187.051 38.6731C209.002 16.546 180.277 -18.0689 129.264 17.9628C96.2976 41.2477 72.1041 36.0628 59.1122 29.4803C46.8678 23.2765 33.2506 16.7907 20.4925 21.8548C5.01202 27.9998 -1.08778 41.3225 22.4651 71.0855C55.8415 113.262 -14.3518 129.58 2.7205 171.238Z" fill="#DEE9FF" fill-opacity="0.4"/>
<path d="M33.7305 80.7041H152.259V171.859C152.259 172.045 152.185 172.223 152.054 172.354C151.922 172.486 151.744 172.559 151.559 172.559H34.4305C34.2448 172.559 34.0668 172.486 33.9355 172.354C33.8042 172.223 33.7305 172.045 33.7305 171.859V80.7041Z" fill="#3448F0" fill-opacity="0.12"/>
<path d="M122.524 44.9824H67.4107L33.7305 80.7038H152.259L122.524 44.9824Z" fill="#3448F0" fill-opacity="0.35"/>
<path d="M44.957 30.6938L67.4105 44.9825L33.7303 80.7039L8.21484 61.3123L44.957 30.6938Z" fill="#3448F0" fill-opacity="0.35"/>
<path d="M144.977 30.6938L122.524 44.9825L152.258 80.7039L181.719 61.3123L144.977 30.6938Z" fill="#3448F0" fill-opacity="0.35"/>
<path d="M81.89 31.4242C82.5237 31.1238 83.0166 30.5901 83.266 29.9347C83.5153 29.2793 83.5016 28.5529 83.2279 27.9073L73.127 4.08939C72.984 3.75202 72.7741 3.44707 72.5102 3.19286C72.2463 2.93866 71.9336 2.74046 71.5911 2.61018C71.2486 2.4799 70.8833 2.42023 70.5171 2.43475C70.151 2.44928 69.7915 2.53771 69.4604 2.69471L67.5144 3.61745C67.1833 3.77445 66.8874 3.99678 66.6444 4.27108C66.4014 4.54538 66.2164 4.86599 66.1005 5.21362C65.9846 5.56125 65.9402 5.92872 65.9699 6.29396C65.9997 6.65919 66.103 7.01464 66.2736 7.33893L78.3203 30.234C78.6469 30.8546 79.2006 31.3249 79.8659 31.5468C80.5312 31.7686 81.2564 31.7247 81.89 31.4242Z" fill="#3448F0" fill-opacity="0.35"/>
<path d="M94.5538 29.1154C95.0124 29.0827 95.4406 28.8741 95.749 28.5331C96.0574 28.1922 96.2221 27.7453 96.2087 27.2857L95.7098 10.3295C95.7027 10.0893 95.6471 9.85301 95.5464 9.63485C95.4457 9.41669 95.3019 9.22115 95.1237 9.05999C94.9455 8.89882 94.7365 8.77536 94.5093 8.69701C94.2822 8.61867 94.0415 8.58706 93.8019 8.60409L92.3931 8.70448C92.1535 8.72153 91.9198 8.78685 91.7061 8.89651C91.4924 9.00616 91.303 9.15789 91.1494 9.34258C90.9958 9.52726 90.8812 9.74109 90.8123 9.97121C90.7435 10.2013 90.7219 10.443 90.7488 10.6817L92.6565 27.5377C92.7081 27.9947 92.9344 28.414 93.2879 28.708C93.6415 29.0021 94.0951 29.148 94.5538 29.1154Z" fill="#3448F0" fill-opacity="0.35"/>
<path d="M104.33 35.3835C105.592 36.1128 107.362 35.4436 108.344 33.8662L125.784 5.85881C126.825 4.18567 126.579 2.14643 125.241 1.37293L123.376 0.294933C122.038 -0.478706 120.147 0.324611 119.217 2.06215L103.643 31.1474C102.766 32.7855 103.069 34.6541 104.33 35.3835Z" fill="#3448F0" fill-opacity="0.35"/>
</svg>
