<svg width="53" height="69" viewBox="0 0 53 69" fill="none" xmlns="http://www.w3.org/2000/svg">
<g clip-path="url(#clip0_1113_3679)">
<g clip-path="url(#clip1_1113_3679)">
<path d="M39.36 39.9411C37.7786 39.0748 36.487 37.4691 36.0342 35.8073C35.7766 34.8641 35.6329 33.9039 35.7137 33.6732C35.7957 33.4415 35.9483 32.6813 36.0548 31.9834C36.1599 31.2856 36.6152 30.1215 37.0642 29.3968C37.5144 28.6719 37.9184 27.9168 37.9645 27.7178C38.0094 27.5201 38.1608 26.8894 38.3006 26.3172C38.8393 24.1185 38.5866 20.8559 37.7055 18.6524C36.9167 16.6781 32.5072 13.2057 29.6997 12.3492C28.7083 12.0466 23.3447 11.9649 22.9637 12.2467C22.7585 12.398 22.1532 12.6225 21.6183 12.7433C20.3794 13.0252 13.1163 19.2331 6.64569 25.5411C3.88948 28.2279 1.55137 30.346 1.45005 30.2496C1.34871 30.1532 1.19994 29.6188 1.12043 29.0625C1.03962 28.506 0.760024 27.5043 0.499664 26.8369C-0.217287 25.008 -0.142898 17.2895 0.595857 16.7734C0.736939 16.6745 0.908801 16.2061 0.975495 15.7326C1.04219 15.2593 1.77837 13.6926 2.61205 12.2492C4.02286 9.80527 4.59232 9.2123 9.41474 5.15783C10.1509 4.53924 11.9811 3.46552 13.2957 2.88354C15.5621 1.87815 16.7485 1.40718 17.2421 1.3169C17.509 1.26809 18.0015 1.11314 18.3363 0.974045C18.671 0.834951 19.3559 0.661694 19.8574 0.589707C20.3588 0.51772 21.1783 0.335921 21.6798 0.185847C22.6662 -0.110642 30.4539 -0.0337746 31.7955 0.284676C32.9805 0.567744 34.1746 0.848372 34.803 0.994786C35.1045 1.06433 35.3917 1.15217 35.4418 1.19123C35.4918 1.22905 35.656 1.29372 35.806 1.33399C35.956 1.37424 36.4075 1.52798 36.8089 1.6744C44.7006 4.56119 50.6427 10.4751 51.8111 16.6062C51.9201 17.1785 52.1394 17.8813 52.2997 18.1668C52.6371 18.7719 52.5242 24.5224 52.1496 25.7961C51.7341 27.2079 51.6956 27.3263 51.4019 28.051C49.9181 31.7101 48.7022 33.3597 44.444 37.5008C41.4865 40.3766 40.7759 40.717 39.36 39.9411Z" fill="#3448F0" fill-opacity="0.56"/>
</g>
<g clip-path="url(#clip2_1113_3679)">
<path d="M21.717 68.7334C19.5254 68.3649 15.3525 67.216 14.2996 66.6902C13.6674 66.3754 12.4132 65.7607 11.5117 65.3264C6.86817 63.087 0.940956 56.5233 0.940956 53.6201C0.940956 53.1384 0.735773 52.6785 0.485706 52.5992C-0.161902 52.3942 -0.161902 42.5018 0.485706 41.8859C0.735773 41.648 0.940956 41.2065 0.940956 40.904C0.940956 39.4902 3.52241 35.7308 6.77327 32.4119C11.0834 28.0108 11.1103 27.9925 12.6607 28.5219C15.2165 29.3928 16.9786 31.9654 16.9786 34.8257C16.9786 36.492 16.472 38.3205 15.8731 38.8181C15.759 38.9133 15.3499 39.6159 14.9665 40.3781C13.997 42.3006 13.7957 46.8187 14.5817 49.0204C17.0042 55.8061 25.005 58.692 32.1967 55.3718C33.0482 54.979 33.7459 54.5252 33.7459 54.3654C33.7459 54.2046 33.906 54.0728 34.1023 54.0728C34.2986 54.0728 36.1093 52.4735 38.1265 50.5194C50.5837 38.4472 50.5991 38.4338 51.1505 39.1828C51.4313 39.5646 51.8263 40.926 52.0301 42.208C52.234 43.4899 52.5688 44.8743 52.774 45.283C53.4689 46.6686 52.1135 52.9591 50.4451 56.0989C49.2525 58.3407 45.8849 61.9452 43.5868 63.4382C42.8855 63.8944 42.2289 64.3531 42.1288 64.4567C42.0288 64.5616 40.7465 65.2338 39.2793 65.951C36.6825 67.2196 35.9387 67.4575 31.3759 68.4711C29.3293 68.9261 23.7623 69.0773 21.717 68.7334Z" fill="#3448F0" fill-opacity="0.56"/>
</g>
</g>
<defs>
<clipPath id="clip0_1113_3679">
<rect width="52.9602" height="68.9214" fill="white"/>
</clipPath>
<clipPath id="clip1_1113_3679">
<rect width="52.5006" height="40.2999" fill="white"/>
</clipPath>
<clipPath id="clip2_1113_3679">
<rect width="52.9602" height="40.6342" fill="white" transform="translate(0 28.2874)"/>
</clipPath>
</defs>
</svg>
